HIERARCHY
ROOT pelvis
{
	OFFSET 0.000000 100.000000 0.000000
	CHANNELS 6 Xposition Yposition Zposition Xrotation Yrotation Zrotation
	JOINT l_hip
	{
		OFFSET 7.136120 -8.958381 -0.804619
		CHANNELS 3 Xrotation Yrotation Zrotation
		JOINT l_knee
		{
			OFFSET 3.066892 -36.420937 -0.668891
			CHANNELS 3 Xrotation Yrotation Zrotation
			JOINT l_ankle
			{
				OFFSET -1.155389 -38.334842 -4.350161
				CHANNELS 3 Xrotation Yrotation Zrotation
				JOINT l_foot
				{
					OFFSET 2.333767 -5.464484 11.437012
					CHANNELS 3 Xrotation Yrotation Zrotation
					End Site
					{
						OFFSET 0 0 0
					}
				}
			}
		}
	}
	JOINT r_hip
	{
		OFFSET -6.901202 -8.896044 -0.479569
		CHANNELS 3 Xrotation Yrotation Zrotation
		JOINT r_knee
		{
			OFFSET -3.615239 -37.065046 -0.918532
			CHANNELS 3 Xrotation Yrotation Zrotation
			JOINT r_ankle
			{
				OFFSET 1.402864 -38.363781 -4.189160
				CHANNELS 3 Xrotation Yrotation Zrotation
				JOINT r_foot
				{
					OFFSET -2.204322 -4.640955 11.789971
					CHANNELS 3 Xrotation Yrotation Zrotation
					End Site
					{
						OFFSET 0 0 0
					}
				}
			}
		}
	}
	JOINT spine1
	{
		OFFSET -0.250821 10.325686 -2.218514
		CHANNELS 3 Xrotation Yrotation Zrotation
		JOINT spine2
		{
			OFFSET 0.358096 12.765765 -0.171301
			CHANNELS 3 Xrotation Yrotation Zrotation
			JOINT spine3
			{
				OFFSET 0.202718 4.907223 2.786721
				CHANNELS 3 Xrotation Yrotation Zrotation
				JOINT neck
				{
					OFFSET -0.196263 20.824318 -4.976548
					CHANNELS 3 Xrotation Yrotation Zrotation
					JOINT head
					{
						OFFSET 0.351716 6.232220 5.020526
						CHANNELS 3 Xrotation Yrotation Zrotation
						End Site
						{
							OFFSET 0 0 0
						}
					}
				}
				JOINT l_collar
				{
					OFFSET 7.529828 11.778043 -3.687482
					CHANNELS 3 Xrotation Yrotation Zrotation
					JOINT l_shoulder
					{
						OFFSET 8.531711 3.173902 -0.729284
						CHANNELS 3 Xrotation Yrotation Zrotation
						JOINT l_elbow
						{
							OFFSET 25.124731 -1.196678 -2.751845
							CHANNELS 3 Xrotation Yrotation Zrotation
							JOINT l_wrist
							{
								OFFSET 23.801910 0.900686 0.004374
								CHANNELS 3 Xrotation Yrotation Zrotation
								JOINT l_hand
								{
									OFFSET 7.966774 -0.968253 -1.320559
									CHANNELS 3 Xrotation Yrotation Zrotation
									End Site
									{
										OFFSET 0 0 0
									}
								}
							}
						}
					}
				}
				JOINT r_collar
				{
					OFFSET -7.703282 11.560620 -4.181065
					CHANNELS 3 Xrotation Yrotation Zrotation
					JOINT r_shoulder
					{
						OFFSET -8.920287 3.278483 -0.980220
						CHANNELS 3 Xrotation Yrotation Zrotation
						JOINT r_elbow
						{
							OFFSET -24.598967 -1.315236 -2.016171
							CHANNELS 3 Xrotation Yrotation Zrotation
							JOINT r_wrist
							{
								OFFSET -24.517682 0.862195 -0.353152
								CHANNELS 3 Xrotation Yrotation Zrotation
								JOINT r_hand
								{
									OFFSET -8.040021 -0.724798 -1.041932
									CHANNELS 3 Xrotation Yrotation Zrotation
									End Site
									{
										OFFSET 0 0 0
									}
								}
							}
						}
					}
				}
			}
		}
	}
}
MOTION
Frames: 13
Frame Time: 0.03333333
23.062953 71.270549 -4.181119 -138.705429 -224.493896 138.327225 -91.286247 2.468999 19.382147 68.638496 4.389859 0.412655 -11.954340 -2.386694 2.859550 0.003455 0.002338 -0.002069 -39.986382 -38.996929 -35.372509 23.825336 -1.093664 -3.240349 -4.955234 0.341174 28.945852 0.003416 -0.000946 0.001489 17.036266 -2.899703 -7.995443 1.520813 6.856258 -12.185802 2.307464 2.628410 -6.142682 -12.476157 0.476308 -0.770453 -14.837821 -42.176952 8.038133 6.947406 0.034301 27.523706 -8.920945 -16.868910 -92.375511 83.943649 -73.741013 95.691246 19.708843 -7.266728 14.519474 -0.000296 0.000432 -0.001255 -2.751819 4.664549 -14.131714 -51.980022 40.968254 92.097885 68.107841 69.774208 -79.247025 19.868767 13.164281 -6.201057 -0.001451 -0.001077 0.004522 
21.741839 71.080387 -5.727822 -144.777924 -221.221237 144.821671 -89.508820 1.488010 20.838417 69.146255 4.561754 0.347502 -13.593111 -5.051038 1.196946 0.003458 0.002338 -0.002070 -40.750877 -32.044926 -34.773457 26.466673 -1.288156 -3.130586 -4.895267 0.540408 31.450808 0.003415 -0.000947 0.001491 17.106821 -3.195869 -7.685260 0.980147 6.020446 -11.451680 2.287974 2.395643 -5.767412 -12.502987 0.412821 -0.915233 -12.750046 -38.007507 9.111071 6.982546 0.251215 27.608452 -8.798019 -18.393057 -92.409019 88.696877 -73.426819 100.556107 20.098011 -7.730279 14.402147 -0.000293 0.000433 -0.001257 -2.398927 5.040714 -17.903793 -45.396461 39.246380 87.586830 59.756443 69.837402 -70.800957 19.554878 11.914667 -6.755478 -0.001451 -0.001083 0.004520 
20.725667 71.129537 -7.018425 -149.552612 -217.972794 149.946228 -87.262764 0.437542 21.657492 69.305428 4.718689 0.316992 -15.816840 -9.860946 -1.733359 0.003456 0.002335 -0.002068 -41.642612 -25.973171 -33.951145 29.121943 -1.496658 -3.016420 -4.997116 1.553229 30.388092 0.003415 -0.000948 0.001489 17.028721 -3.352171 -7.274464 0.509508 5.282844 -10.459734 2.326279 2.182711 -5.236724 -12.529675 0.356067 -1.057942 -10.672926 -34.458714 9.722123 6.913400 0.048863 27.499062 -8.452853 -20.151108 -92.567894 89.185173 -73.341301 101.031822 20.444174 -8.174462 14.013532 -0.000295 0.000429 -0.001261 -1.800465 5.470711 -20.965467 -39.801071 37.858410 83.657608 50.531803 69.242706 -61.395916 18.977861 10.665493 -7.164827 -0.001451 -0.001081 0.004522 
19.901113 71.348631 -7.986114 -153.438873 -214.548111 154.237839 -84.481262 -0.883690 22.101381 69.127388 4.851147 0.323976 -18.502419 -15.354182 -5.826058 0.003457 0.002337 -0.002070 -42.664661 -21.637220 -33.302643 30.481590 -1.629670 -2.974511 -4.491756 3.472414 28.834606 0.003412 -0.000948 0.001490 16.731272 -3.352297 -6.860154 0.172340 4.835834 -9.617361 2.407867 2.062256 -4.736545 -12.545012 0.303446 -1.203078 -8.596094 -31.562899 10.214474 6.754699 -0.216565 27.535172 -8.286385 -22.007154 -93.021278 87.459106 -73.410118 99.232864 20.268976 -8.487628 13.463316 -0.000296 0.000429 -0.001260 -1.009744 5.872846 -23.015263 -34.900402 36.622845 80.413750 41.775806 67.975273 -52.399525 18.580086 9.497334 -7.421276 -0.001451 -0.001080 0.004524 
19.202572 71.698201 -8.609361 -156.829224 -210.819931 158.028503 -80.986862 -2.378332 22.398939 68.553535 4.947769 0.375733 -21.343014 -20.299484 -10.039211 0.003457 0.002341 -0.002069 -43.530109 -18.525305 -32.613075 30.768202 -1.694580 -2.994210 -3.195239 5.431527 27.358509 0.003415 -0.000947 0.001488 16.364691 -3.268551 -6.438692 -0.141796 4.682697 -9.146046 2.461458 2.048772 -4.373266 -12.552662 0.256087 -1.353922 -6.737696 -28.912621 10.674395 6.619737 -0.422798 27.867128 -8.154176 -23.500111 -93.820038 85.195503 -73.483849 96.883881 19.778000 -8.560112 12.841798 -0.000294 0.000426 -0.001259 -0.130226 6.319875 -24.130602 -30.808786 35.438866 78.135063 33.216831 65.790604 -43.491020 18.343348 8.474571 -7.405031 -0.001451 -0.001082 0.004519 
18.572608 72.123098 -8.884993 -159.894653 -206.967972 161.329269 -76.911606 -3.701732 22.750038 67.618355 5.006077 0.469346 -23.857944 -24.178135 -13.332046 0.003456 0.002337 -0.002069 -44.014687 -16.342102 -31.800615 30.405886 -1.705211 -3.044295 -1.245829 6.786587 26.006437 0.003414 -0.000948 0.001490 16.089228 -3.195186 -5.971024 -0.532226 4.617656 -8.898331 2.436575 2.046563 -4.081361 -12.548920 0.216277 -1.495042 -5.185677 -26.163584 10.891839 6.592655 -0.629924 28.280691 -7.707510 -24.262522 -94.762383 83.240280 -73.486946 94.851051 19.443230 -8.647496 12.310407 -0.000293 0.000430 -0.001257 0.712219 6.806394 -24.457129 -27.764692 34.522392 76.845734 24.881777 62.239250 -34.641289 17.713926 7.766993 -6.918783 -0.001451 -0.001078 0.004520 
17.950113 72.559154 -8.834038 -162.577835 -203.281815 164.107239 -72.625259 -4.583815 23.212763 66.423676 5.036491 0.593789 -25.664930 -26.786606 -15.339333 0.003455 0.002338 -0.002070 -44.194260 -14.991654 -31.069134 29.748835 -1.673937 -3.096404 0.961834 7.481950 25.000237 0.003413 -0.000947 0.001490 15.863312 -3.199847 -5.491841 -0.969653 4.423026 -8.655052 2.332385 1.961649 -3.767925 -12.537448 0.185165 -1.629736 -3.739960 -23.276241 10.777099 6.648898 -0.848249 28.471712 -6.836904 -24.357363 -95.504257 81.932167 -73.406487 93.468636 19.275965 -8.860141 12.067718 -0.000293 0.000427 -0.001257 1.418971 7.114617 -24.108751 -25.867950 34.101955 76.333549 17.634630 57.179871 -26.689812 16.981920 7.164081 -6.000592 -0.001452 -0.001078 0.004523 
17.297797 72.975123 -8.516407 -164.787415 -199.847961 166.482330 -68.345459 -5.077871 23.621176 65.009346 5.051869 0.743482 -26.528938 -27.723267 -16.151960 0.003458 0.002337 -0.002070 -44.414272 -14.204639 -30.606188 29.197746 -1.628765 -3.125702 3.023124 7.797486 24.263840 0.003416 -0.000948 0.001489 15.562883 -3.292961 -5.075444 -1.427818 4.048934 -8.380687 2.182622 1.779000 -3.410686 -12.514606 0.160482 -1.751346 -2.174350 -20.351074 10.429450 6.701468 -0.980456 28.394094 -5.804191 -24.003073 -95.953285 81.127846 -73.259430 92.590027 18.943510 -9.063138 12.124798 -0.000292 0.000425 -0.001258 2.008753 7.223271 -23.217596 -24.971420 33.959007 76.319191 11.945203 50.756718 -20.113579 16.846708 6.557873 -5.054865 -0.001452 -0.001084 0.004521 
16.627592 73.379135 -7.994508 -166.585938 -196.592987 168.591705 -64.217453 -5.083595 24.118917 63.300068 5.036854 0.925859 -25.933561 -27.173931 -16.240534 0.003455 0.002336 -0.002072 -44.820358 -13.718707 -30.371529 28.944344 -1.592875 -3.127794 4.799352 7.910351 23.506893 0.003415 -0.000949 0.001490 15.181999 -3.411919 -4.714193 -1.908714 3.632240 -8.124182 2.001907 1.563310 -3.035605 -12.484153 0.138824 -1.871963 -0.440543 -17.494768 9.967064 6.706722 -1.024261 28.173029 -4.955609 -23.306448 -96.233376 80.217674 -73.081841 91.596069 18.402155 -9.121059 12.307998 -0.000296 0.000429 -0.001259 2.576410 7.387366 -21.862951 -24.818993 33.560009 76.523773 7.624373 42.939964 -14.680112 17.455063 6.205725 -4.335658 -0.001452 -0.001080 0.004517 
15.968563 73.798788 -7.320890 -168.113724 -193.531509 170.465637 -60.302982 -4.578715 24.883186 61.085476 4.967433 1.160162 -23.133472 -25.738413 -16.571754 0.003458 0.002336 -0.002070 -45.259670 -13.483064 -30.266413 28.896135 -1.568124 -3.114156 6.334295 7.797598 22.529028 0.003412 -0.000948 0.001490 14.797893 -3.491269 -4.342536 -2.332256 3.257359 -7.841554 1.821163 1.334957 -2.616709 -12.438523 0.122183 -1.987251 1.308390 -14.794287 9.379728 6.621600 -1.032316 27.777578 -4.445748 -22.371542 -96.375565 78.723869 -72.892273 90.000084 17.649857 -8.893835 12.537777 -0.000294 0.000427 -0.001258 3.205448 7.740407 -20.111502 -25.342638 32.627934 76.664833 4.383566 33.538132 -10.029330 18.635328 6.229550 -3.590852 -0.001450 -0.001080 0.004519 
15.299846 74.255717 -6.535778 -169.419556 -190.815491 172.070389 -56.596294 -3.462927 25.825502 58.390713 4.833408 1.439220 -19.398087 -23.988220 -16.660028 0.003456 0.002337 -0.002070 -45.650757 -13.650921 -30.331320 28.952305 -1.546460 -3.090294 7.688876 7.374220 21.326782 0.003415 -0.000948 0.001488 14.421704 -3.551231 -3.911059 -2.589885 2.842845 -7.478281 1.673432 1.061604 -2.126060 -12.377308 0.119293 -2.101795 2.900295 -12.238261 8.665257 6.419033 -0.938902 27.145935 -4.292262 -21.332884 -96.299080 76.860794 -72.686966 88.020432 16.654400 -8.404077 12.942633 -0.000294 0.000430 -0.001259 3.914468 8.333550 -17.801708 -26.483871 31.483839 76.266190 2.030520 22.239613 -5.822571 19.779785 6.253746 -2.690247 -0.001451 -0.001081 0.004512 
14.561790 74.756658 -5.659046 -170.489151 -188.542053 173.388290 -53.164047 -1.955235 26.850424 55.493099 4.630630 1.724450 -16.079222 -21.702435 -16.970936 0.003459 0.002337 -0.002070 -46.009125 -14.287110 -30.579027 29.091372 -1.529549 -3.061257 8.827291 6.562393 20.072945 0.003414 -0.000947 0.001487 14.022033 -3.624118 -3.445482 -2.639027 2.287534 -6.944886 1.514861 0.751413 -1.695961 -12.311927 0.134417 -2.181256 4.417657 -9.825885 7.883252 6.147397 -0.706610 26.393898 -4.435052 -20.203892 -95.960854 75.220215 -72.504120 86.283676 15.546812 -7.912323 13.528267 -0.000296 0.000428 -0.001257 4.312246 8.256667 -16.025301 -25.826826 29.911388 76.038445 1.160671 15.536391 -3.772769 19.967928 5.958805 -2.402309 -0.001450 -0.001082 0.004517 
13.711162 75.312018 -4.725115 -171.295837 -186.654938 174.471863 -50.174526 -0.069711 28.028959 52.943928 4.399576 1.956037 -15.767522 -20.356169 -18.016552 0.003456 0.002337 -0.002069 -46.480453 -15.376649 -30.998650 29.307505 -1.519007 -3.029366 9.636829 5.547861 18.830996 0.003416 -0.000949 0.001489 13.597063 -3.716724 -3.027565 -2.599541 1.674732 -6.289782 1.312657 0.444898 -1.367912 -12.253952 0.162607 -2.219937 5.980008 -7.611575 7.107902 5.880357 -0.413976 25.762543 -4.850162 -18.922691 -95.461639 73.953178 -72.367622 84.944954 14.405624 -7.610152 14.059943 -0.000291 0.000427 -0.001258 4.380503 7.554213 -14.875298 -23.385509 27.975561 76.280983 0.975378 13.400543 -3.254234 19.021082 5.388213 -2.911795 -0.001449 -0.001081 0.004517 
